<?xml version="1.0" encoding="utf-8"?>
<!-- Generator: Adobe Illustrator 27.0.1, SVG Export Plug-In . SVG Version: 6.00 Build 0)  -->
<svg version="1.1" id="logo" xmlns="http://www.w3.org/2000/svg" xmlns:xlink="http://www.w3.org/1999/xlink" x="0px" y="0px"
	 viewBox="0 0 716.9 131.3" style="enable-background:new 0 0 716.9 131.3;" xml:space="preserve">
<style type="text/css">
	.st0{fill:#0075C9;}
</style>
<g>
	<g>
		<g>
			<g>
				<path class="st0" d="M143.3,97.6V25.2h31c3.2,0,6.1,0.7,8.8,2c2.7,1.3,5,3.1,6.9,5.3c1.9,2.2,3.5,4.7,4.5,7.4
					c1.1,2.8,1.6,5.6,1.6,8.4c0,2.5-0.4,4.9-1.1,7.3c-0.7,2.3-1.7,4.5-3.1,6.4c-1.3,1.9-2.9,3.5-4.8,4.9c-1.9,1.4-4,2.3-6.3,3
					l17.5,27.8h-10.4l-16.5-26h-19.2v26H143.3z M152.5,63.4h21.9c1.9,0,3.6-0.4,5.2-1.2s2.8-1.9,3.9-3.3c1.1-1.4,1.9-3,2.6-4.8
					c0.6-1.8,0.9-3.7,0.9-5.7c0-2-0.4-4-1.1-5.8c-0.7-1.8-1.7-3.4-2.9-4.8c-1.2-1.4-2.6-2.5-4.2-3.3c-1.6-0.8-3.3-1.2-5-1.2h-21.3
					V63.4z"/>
				<path class="st0" d="M210.7,97.6V86.2h7.5v11.4H210.7z"/>
				<path class="st0" d="M327,97.6v-56l-24.1,43h-5.2l-24.2-43v56h-9.2V25.2h9.7l26.2,47l26.3-47h9.6v72.4H327z"/>
				<path class="st0" d="M378.2,25.2h7.8l29.6,72.4h-9.8l-8.6-21.2h-30.4l-8.5,21.2h-9.8L378.2,25.2z M395.1,69.2L382,35.8
					l-13.5,33.5H395.1z"/>
				<path class="st0" d="M422.3,90.5l46.7-57.1h-45.8v-8.2h56.5v7.1l-45.9,57.1h45.9v8.2h-57.4V90.5z"/>
				<path class="st0" d="M489.3,90.5L536,33.3h-45.8v-8.2h56.5v7.1l-45.9,57.1h45.9v8.2h-57.4V90.5z"/>
				<path class="st0" d="M589.4,98.1c-5.1,0-9.7-1-13.9-3.1c-4.2-2.1-7.8-4.8-10.8-8.3c-3-3.4-5.3-7.4-6.9-11.8
					c-1.6-4.4-2.4-8.9-2.4-13.6c0-4.8,0.9-9.5,2.6-13.9c1.7-4.4,4.1-8.3,7.2-11.7c3.1-3.4,6.7-6.1,10.9-8.1c4.2-2,8.7-3,13.6-3
					c5.1,0,9.7,1.1,13.9,3.2c4.1,2.1,7.7,4.9,10.7,8.4c3,3.5,5.3,7.4,6.9,11.8c1.6,4.4,2.4,8.9,2.4,13.4c0,4.8-0.9,9.5-2.6,13.9
					c-1.7,4.4-4.1,8.3-7.1,11.7c-3,3.4-6.6,6.1-10.8,8.1C598.9,97.1,594.3,98.1,589.4,98.1z M564.7,61.4c0,3.7,0.6,7.2,1.8,10.7
					c1.2,3.4,2.9,6.5,5.1,9.1c2.2,2.7,4.8,4.8,7.9,6.3s6.5,2.3,10.2,2.3c3.9,0,7.3-0.8,10.4-2.5c3.1-1.7,5.7-3.8,7.8-6.5
					c2.1-2.7,3.8-5.7,4.9-9.1c1.1-3.4,1.7-6.8,1.7-10.3c0-3.7-0.6-7.2-1.8-10.7c-1.2-3.4-2.9-6.5-5.1-9.1c-2.2-2.6-4.8-4.7-7.9-6.3
					c-3-1.6-6.4-2.3-10-2.3c-3.9,0-7.3,0.8-10.4,2.4c-3.1,1.6-5.7,3.8-7.8,6.4c-2.1,2.7-3.8,5.7-4.9,9.1
					C565.2,54.4,564.7,57.8,564.7,61.4z"/>
				<path class="st0" d="M638.9,97.6V25.2h9.2v64.3h40.4v8.2H638.9z"/>
				<path class="st0" d="M701.1,97.6V25.2h9.2v72.4H701.1z"/>
			</g>
		</g>
		<rect x="143.1" y="105" class="st0" width="567.3" height="1.1"/>
		<g>
			<g>
				<path class="st0" d="M151.7,116c-0.4-0.4-0.9-0.8-1.6-1.1c-0.7-0.3-1.4-0.4-2.2-0.4c-1.2,0-2.1,0.2-2.7,0.7
					c-0.6,0.5-0.8,1.1-0.8,1.9c0,0.4,0.1,0.8,0.2,1c0.1,0.3,0.4,0.5,0.7,0.7c0.3,0.2,0.7,0.4,1.2,0.5c0.5,0.1,1.1,0.3,1.7,0.4
					c0.7,0.2,1.4,0.3,2,0.5s1.1,0.4,1.5,0.7c0.4,0.3,0.7,0.7,1,1.1s0.3,0.9,0.3,1.6c0,0.6-0.1,1.2-0.4,1.7c-0.2,0.5-0.6,0.9-1,1.2
					c-0.4,0.3-1,0.5-1.6,0.7c-0.6,0.2-1.3,0.2-2,0.2c-2.2,0-4-0.7-5.6-2l0.7-1.1c0.2,0.3,0.5,0.5,0.9,0.7c0.3,0.2,0.7,0.4,1.2,0.6
					s0.9,0.3,1.4,0.4c0.5,0.1,1,0.1,1.5,0.1c1.1,0,2-0.2,2.6-0.6c0.6-0.4,0.9-1,0.9-1.8c0-0.4-0.1-0.8-0.3-1.1
					c-0.2-0.3-0.4-0.5-0.8-0.8c-0.4-0.2-0.8-0.4-1.3-0.6c-0.5-0.2-1.1-0.3-1.8-0.5c-0.7-0.2-1.4-0.3-1.9-0.5s-1-0.4-1.4-0.7
					c-0.4-0.3-0.7-0.6-0.9-1c-0.2-0.4-0.3-0.9-0.3-1.4c0-0.6,0.1-1.2,0.4-1.7c0.2-0.5,0.6-0.9,1-1.3c0.4-0.3,1-0.6,1.6-0.8
					s1.3-0.3,2-0.3c0.9,0,1.8,0.1,2.5,0.4s1.4,0.7,2,1.2L151.7,116z"/>
				<path class="st0" d="M166.7,114.6h-5v12.7h-1.4v-12.7h-5v-1.2h11.3V114.6z"/>
				<path class="st0" d="M173.1,113.4h1.2l5.8,13.9h-1.5l-1.8-4.4h-6.3l-1.8,4.4h-1.5L173.1,113.4z M176.4,121.9l-2.8-6.9l-2.8,6.9
					H176.4z"/>
				<path class="st0" d="M183.4,127.4v-13.9h9.2v1.2h-7.8v5.1h6.6v1.1h-6.6v6.5H183.4z"/>
				<path class="st0" d="M196.3,127.4v-13.9h9.2v1.2h-7.8v5.1h6.6v1.1h-6.6v6.5H196.3z"/>
				<path class="st0" d="M214.7,122.6v-1.2h5.7v1.2H214.7z"/>
				<path class="st0" d="M231.3,127.4v-13.9h5.8c0.6,0,1.2,0.1,1.7,0.4c0.5,0.3,0.9,0.6,1.3,1c0.4,0.4,0.7,0.9,0.9,1.4
					s0.3,1.1,0.3,1.6c0,0.6-0.1,1.1-0.3,1.7c-0.2,0.5-0.5,1-0.8,1.4c-0.4,0.4-0.8,0.7-1.3,1c-0.5,0.2-1,0.4-1.6,0.4h-4.5v5.1H231.3z
					 M232.6,121h4.5c0.4,0,0.8-0.1,1.1-0.3c0.3-0.2,0.6-0.4,0.9-0.7c0.2-0.3,0.4-0.6,0.5-1c0.1-0.4,0.2-0.8,0.2-1.2
					c0-0.4-0.1-0.8-0.2-1.2c-0.2-0.4-0.4-0.7-0.6-1s-0.6-0.5-0.9-0.7c-0.3-0.2-0.7-0.2-1.1-0.2h-4.3V121z"/>
				<path class="st0" d="M244.8,127.4v-13.9h1.4v12.7h8.1v1.2H244.8z"/>
				<path class="st0" d="M262,113.4h1.2l5.8,13.9h-1.5l-1.8-4.4h-6.3l-1.8,4.4h-1.5L262,113.4z M265.4,121.9l-2.8-6.9l-2.8,6.9
					H265.4z"/>
				<path class="st0" d="M272.3,127.4v-13.9h9.2v1.2h-7.8v5.1h6.6v1.1h-6.6v6.5H272.3z"/>
				<path class="st0" d="M290.6,127.5c-1,0-1.9-0.2-2.7-0.6s-1.5-0.9-2.1-1.6c-0.6-0.7-1-1.4-1.3-2.3c-0.3-0.9-0.5-1.7-0.5-2.6
					c0-0.9,0.2-1.8,0.5-2.7c0.3-0.9,0.8-1.6,1.4-2.3c0.6-0.7,1.3-1.2,2.1-1.6c0.8-0.4,1.7-0.6,2.6-0.6c1,0,1.9,0.2,2.7,0.6
					c0.8,0.4,1.5,1,2.1,1.6c0.6,0.7,1,1.4,1.3,2.3c0.3,0.8,0.5,1.7,0.5,2.6c0,0.9-0.2,1.8-0.5,2.7c-0.3,0.9-0.8,1.6-1.4,2.2
					c-0.6,0.6-1.3,1.2-2.1,1.6C292.4,127.3,291.5,127.5,290.6,127.5z M285.4,120.4c0,0.8,0.1,1.5,0.4,2.2s0.6,1.3,1.1,1.9
					c0.5,0.5,1,1,1.6,1.3c0.6,0.3,1.3,0.5,2.1,0.5c0.8,0,1.5-0.2,2.1-0.5c0.6-0.3,1.2-0.8,1.6-1.3c0.4-0.5,0.8-1.2,1-1.9
					c0.2-0.7,0.4-1.4,0.4-2.1c0-0.8-0.1-1.5-0.4-2.2s-0.6-1.3-1.1-1.9c-0.5-0.5-1-1-1.6-1.3c-0.6-0.3-1.3-0.5-2.1-0.5
					c-0.8,0-1.5,0.2-2.1,0.5c-0.6,0.3-1.2,0.8-1.6,1.3c-0.4,0.5-0.8,1.2-1,1.9C285.5,119,285.4,119.7,285.4,120.4z"/>
				<path class="st0" d="M302.4,116v11.4h-1.4v-13.9h1.1l9.2,11.6v-11.6h1.4v13.9h-1.2L302.4,116z"/>
				<path class="st0" d="M317.6,127.4v-13.9h4.7c1.1,0,2.1,0.2,2.9,0.5c0.8,0.4,1.5,0.9,2.1,1.5c0.6,0.6,1,1.4,1.3,2.2
					c0.3,0.8,0.4,1.7,0.4,2.7c0,1.1-0.2,2-0.5,2.9c-0.3,0.9-0.8,1.6-1.3,2.2c-0.6,0.6-1.3,1.1-2.1,1.4c-0.8,0.3-1.7,0.5-2.8,0.5
					H317.6z M327.6,120.4c0-0.8-0.1-1.6-0.4-2.3c-0.2-0.7-0.6-1.3-1-1.8c-0.5-0.5-1-0.9-1.7-1.2c-0.7-0.3-1.4-0.4-2.3-0.4H319v11.5
					h3.4c0.9,0,1.6-0.1,2.3-0.4c0.7-0.3,1.2-0.7,1.7-1.2c0.4-0.5,0.8-1.1,1-1.8S327.6,121.2,327.6,120.4z"/>
				<path class="st0" d="M341.2,116c-0.4-0.4-0.9-0.8-1.6-1.1c-0.7-0.3-1.4-0.4-2.2-0.4c-1.2,0-2.1,0.2-2.7,0.7
					c-0.6,0.5-0.8,1.1-0.8,1.9c0,0.4,0.1,0.8,0.2,1c0.1,0.3,0.4,0.5,0.7,0.7c0.3,0.2,0.7,0.4,1.2,0.5c0.5,0.1,1.1,0.3,1.7,0.4
					c0.7,0.2,1.4,0.3,2,0.5s1.1,0.4,1.5,0.7c0.4,0.3,0.7,0.7,1,1.1s0.3,0.9,0.3,1.6c0,0.6-0.1,1.2-0.4,1.7c-0.2,0.5-0.6,0.9-1,1.2
					c-0.4,0.3-1,0.5-1.6,0.7c-0.6,0.2-1.3,0.2-2,0.2c-2.2,0-4-0.7-5.6-2l0.7-1.1c0.2,0.3,0.5,0.5,0.9,0.7c0.3,0.2,0.7,0.4,1.2,0.6
					s0.9,0.3,1.4,0.4c0.5,0.1,1,0.1,1.5,0.1c1.1,0,2-0.2,2.6-0.6c0.6-0.4,0.9-1,0.9-1.8c0-0.4-0.1-0.8-0.3-1.1
					c-0.2-0.3-0.4-0.5-0.8-0.8c-0.4-0.2-0.8-0.4-1.3-0.6c-0.5-0.2-1.1-0.3-1.8-0.5c-0.7-0.2-1.4-0.3-1.9-0.5s-1-0.4-1.4-0.7
					c-0.4-0.3-0.7-0.6-0.9-1c-0.2-0.4-0.3-0.9-0.3-1.4c0-0.6,0.1-1.2,0.4-1.7c0.2-0.5,0.6-0.9,1-1.3c0.4-0.3,1-0.6,1.6-0.8
					s1.3-0.3,2-0.3c0.9,0,1.8,0.1,2.5,0.4s1.4,0.7,2,1.2L341.2,116z"/>
				<path class="st0" d="M352.2,122.6v-1.2h5.7v1.2H352.2z"/>
				<path class="st0" d="M368.7,127.4v-13.9h5.8c0.6,0,1.2,0.1,1.7,0.4c0.5,0.3,0.9,0.6,1.3,1c0.4,0.4,0.7,0.9,0.9,1.4
					c0.2,0.5,0.3,1.1,0.3,1.6c0,0.6-0.1,1.1-0.3,1.7c-0.2,0.5-0.5,1-0.8,1.4c-0.4,0.4-0.8,0.7-1.3,1c-0.5,0.2-1,0.4-1.6,0.4h-4.5
					v5.1H368.7z M370.1,121h4.5c0.4,0,0.8-0.1,1.1-0.3c0.3-0.2,0.6-0.4,0.9-0.7c0.2-0.3,0.4-0.6,0.5-1c0.1-0.4,0.2-0.8,0.2-1.2
					c0-0.4-0.1-0.8-0.2-1.2c-0.2-0.4-0.4-0.7-0.6-1s-0.6-0.5-0.9-0.7c-0.3-0.2-0.7-0.2-1.1-0.2h-4.3V121z"/>
				<path class="st0" d="M382.3,127.4v-13.9h1.4v12.7h8.1v1.2H382.3z"/>
				<path class="st0" d="M399.5,113.4h1.2l5.8,13.9H405l-1.8-4.4h-6.3l-1.8,4.4h-1.5L399.5,113.4z M402.8,121.9L400,115l-2.8,6.9
					H402.8z M397.6,111l1.9-1.7h1l1.9,1.7l-0.8,0.4l-1.7-1.2l-1.7,1.2L397.6,111z"/>
				<path class="st0" d="M418.3,114.6h-5v12.7H412v-12.7h-5v-1.2h11.3V114.6z"/>
				<path class="st0" d="M421.8,127.4v-13.9h5.9c0.6,0,1.2,0.1,1.7,0.4c0.5,0.3,0.9,0.6,1.3,1c0.4,0.4,0.7,0.9,0.9,1.4
					s0.3,1.1,0.3,1.6c0,0.5-0.1,1-0.2,1.5c-0.2,0.5-0.4,0.9-0.6,1.3s-0.6,0.7-1,0.9c-0.4,0.3-0.8,0.4-1.3,0.5l3.4,5.4h-1.6l-3.3-5.1
					h-4.1v5.1H421.8z M423.1,121h4.6c0.4,0,0.8-0.1,1.1-0.3c0.3-0.2,0.6-0.4,0.9-0.7c0.2-0.3,0.4-0.6,0.5-1s0.2-0.8,0.2-1.2
					c0-0.4-0.1-0.8-0.2-1.2c-0.2-0.4-0.4-0.7-0.6-1c-0.3-0.3-0.6-0.5-0.9-0.7c-0.3-0.2-0.7-0.3-1.1-0.3h-4.4V121z"/>
				<path class="st0" d="M445.3,126.1v1.2H436v-13.9h9.2v1.2h-7.8v5h6.8v1.2h-6.8v5.3H445.3z"/>
				<path class="st0" d="M449.3,127.4v-13.9h5.9c0.6,0,1.2,0.1,1.7,0.4c0.5,0.3,0.9,0.6,1.3,1c0.4,0.4,0.7,0.9,0.9,1.4
					s0.3,1.1,0.3,1.6c0,0.5-0.1,1-0.2,1.5c-0.2,0.5-0.4,0.9-0.6,1.3s-0.6,0.7-1,0.9c-0.4,0.3-0.8,0.4-1.3,0.5l3.4,5.4h-1.6l-3.3-5.1
					h-4.1v5.1H449.3z M450.7,121h4.6c0.4,0,0.8-0.1,1.1-0.3c0.3-0.2,0.6-0.4,0.9-0.7c0.2-0.3,0.4-0.6,0.5-1s0.2-0.8,0.2-1.2
					c0-0.4-0.1-0.8-0.2-1.2c-0.2-0.4-0.4-0.7-0.6-1c-0.3-0.3-0.6-0.5-0.9-0.7c-0.3-0.2-0.7-0.3-1.1-0.3h-4.4V121z"/>
				<path class="st0" d="M463.5,127.4v-13.9h1.4v13.9H463.5z"/>
				<path class="st0" d="M479.1,126.1v1.2h-9.4v-13.9h9.2v1.2h-7.8v5h6.8v1.2h-6.8v5.3H479.1z"/>
				<path class="st0" d="M489,122.6v-1.2h5.7v1.2H489z"/>
				<path class="st0" d="M504.6,120.3c0-0.8,0.1-1.7,0.4-2.5c0.3-0.8,0.7-1.6,1.3-2.2c0.6-0.7,1.3-1.2,2.1-1.6
					c0.8-0.4,1.8-0.6,2.8-0.6c1.2,0,2.3,0.3,3.2,0.8c0.9,0.6,1.5,1.3,2,2.2l-1.1,0.7c-0.2-0.5-0.5-0.8-0.8-1.2
					c-0.3-0.3-0.7-0.6-1-0.8s-0.7-0.3-1.1-0.4c-0.4-0.1-0.8-0.1-1.2-0.1c-0.8,0-1.6,0.2-2.2,0.5c-0.6,0.3-1.2,0.8-1.6,1.3
					s-0.8,1.2-1,1.9s-0.3,1.4-0.3,2.1c0,0.8,0.1,1.5,0.4,2.2s0.6,1.3,1.1,1.9s1,1,1.6,1.3c0.6,0.3,1.3,0.5,2.1,0.5
					c0.4,0,0.8,0,1.2-0.1c0.4-0.1,0.8-0.3,1.2-0.5c0.4-0.2,0.7-0.5,1.1-0.8c0.3-0.3,0.6-0.7,0.8-1.2l1.1,0.6c-0.2,0.5-0.5,1-0.9,1.4
					c-0.4,0.4-0.9,0.7-1.4,1s-1,0.5-1.6,0.6c-0.6,0.1-1.1,0.2-1.6,0.2c-1,0-1.8-0.2-2.6-0.6c-0.8-0.4-1.5-1-2.1-1.6
					c-0.6-0.7-1-1.4-1.3-2.3C504.7,122,504.6,121.2,504.6,120.3z"/>
				<path class="st0" d="M520.3,127.4v-13.9h1.4v12.7h8.1v1.2H520.3z"/>
				<path class="st0" d="M537.9,127.5c-1,0-1.9-0.2-2.7-0.6c-0.8-0.4-1.5-0.9-2.1-1.6c-0.6-0.7-1-1.4-1.3-2.3
					c-0.3-0.9-0.5-1.7-0.5-2.6c0-0.9,0.2-1.8,0.5-2.7s0.8-1.6,1.4-2.3c0.6-0.7,1.3-1.2,2.1-1.6c0.8-0.4,1.7-0.6,2.6-0.6
					c1,0,1.9,0.2,2.7,0.6c0.8,0.4,1.5,1,2.1,1.6s1,1.4,1.3,2.3c0.3,0.8,0.5,1.7,0.5,2.6c0,0.9-0.2,1.8-0.5,2.7
					c-0.3,0.9-0.8,1.6-1.4,2.2c-0.6,0.6-1.3,1.2-2.1,1.6C539.7,127.3,538.8,127.5,537.9,127.5z M532.7,120.4c0,0.8,0.1,1.5,0.4,2.2
					s0.6,1.3,1.1,1.9s1,1,1.6,1.3c0.6,0.3,1.3,0.5,2.1,0.5c0.8,0,1.5-0.2,2.1-0.5s1.2-0.8,1.6-1.3s0.8-1.2,1-1.9
					c0.2-0.7,0.4-1.4,0.4-2.1c0-0.8-0.1-1.5-0.4-2.2c-0.3-0.7-0.6-1.3-1.1-1.9c-0.5-0.5-1-1-1.6-1.3c-0.6-0.3-1.3-0.5-2.1-0.5
					c-0.8,0-1.5,0.2-2.1,0.5c-0.6,0.3-1.2,0.8-1.6,1.3c-0.4,0.5-0.8,1.2-1,1.9C532.9,119,532.7,119.7,532.7,120.4z"/>
				<path class="st0" d="M548.4,127.4v-13.9h1.4v13.9H548.4z"/>
				<path class="st0" d="M562.8,116c-0.4-0.4-0.9-0.8-1.6-1.1c-0.7-0.3-1.4-0.4-2.2-0.4c-1.2,0-2.1,0.2-2.7,0.7
					c-0.6,0.5-0.8,1.1-0.8,1.9c0,0.4,0.1,0.8,0.2,1c0.2,0.3,0.4,0.5,0.7,0.7s0.7,0.4,1.2,0.5c0.5,0.1,1.1,0.3,1.7,0.4
					c0.7,0.2,1.4,0.3,2,0.5s1.1,0.4,1.5,0.7c0.4,0.3,0.7,0.7,1,1.1s0.3,0.9,0.3,1.6c0,0.6-0.1,1.2-0.4,1.7c-0.2,0.5-0.6,0.9-1,1.2
					c-0.4,0.3-1,0.5-1.6,0.7s-1.3,0.2-2,0.2c-2.2,0-4-0.7-5.6-2l0.7-1.1c0.2,0.3,0.5,0.5,0.9,0.7c0.3,0.2,0.7,0.4,1.2,0.6
					c0.4,0.2,0.9,0.3,1.4,0.4c0.5,0.1,1,0.1,1.5,0.1c1.1,0,2-0.2,2.6-0.6c0.6-0.4,0.9-1,0.9-1.8c0-0.4-0.1-0.8-0.3-1.1
					c-0.2-0.3-0.4-0.5-0.8-0.8c-0.4-0.2-0.8-0.4-1.3-0.6s-1.1-0.3-1.8-0.5c-0.7-0.2-1.4-0.3-1.9-0.5s-1-0.4-1.4-0.7
					c-0.4-0.3-0.7-0.6-0.9-1c-0.2-0.4-0.3-0.9-0.3-1.4c0-0.6,0.1-1.2,0.4-1.7c0.2-0.5,0.6-0.9,1-1.3c0.4-0.3,1-0.6,1.6-0.8
					c0.6-0.2,1.3-0.3,2-0.3c0.9,0,1.8,0.1,2.5,0.4s1.4,0.7,2,1.2L562.8,116z"/>
				<path class="st0" d="M573.6,127.5c-1,0-1.9-0.2-2.7-0.6c-0.8-0.4-1.5-0.9-2.1-1.6c-0.6-0.7-1-1.4-1.3-2.3
					c-0.3-0.9-0.5-1.7-0.5-2.6c0-0.9,0.2-1.8,0.5-2.7s0.8-1.6,1.4-2.3c0.6-0.7,1.3-1.2,2.1-1.6c0.8-0.4,1.7-0.6,2.6-0.6
					c1,0,1.9,0.2,2.7,0.6c0.8,0.4,1.5,1,2.1,1.6s1,1.4,1.3,2.3c0.3,0.8,0.5,1.7,0.5,2.6c0,0.9-0.2,1.8-0.5,2.7
					c-0.3,0.9-0.8,1.6-1.4,2.2c-0.6,0.6-1.3,1.2-2.1,1.6C575.4,127.3,574.5,127.5,573.6,127.5z M568.4,120.4c0,0.8,0.1,1.5,0.4,2.2
					s0.6,1.3,1.1,1.9s1,1,1.6,1.3c0.6,0.3,1.3,0.5,2.1,0.5c0.8,0,1.5-0.2,2.1-0.5s1.2-0.8,1.6-1.3s0.8-1.2,1-1.9
					c0.2-0.7,0.4-1.4,0.4-2.1c0-0.8-0.1-1.5-0.4-2.2c-0.3-0.7-0.6-1.3-1.1-1.9c-0.5-0.5-1-1-1.6-1.3c-0.6-0.3-1.3-0.5-2.1-0.5
					c-0.8,0-1.5,0.2-2.1,0.5c-0.6,0.3-1.2,0.8-1.6,1.3c-0.4,0.5-0.8,1.2-1,1.9C568.5,119,568.4,119.7,568.4,120.4z"/>
				<path class="st0" d="M585.4,116v11.4h-1.4v-13.9h1.1l9.2,11.6v-11.6h1.4v13.9h-1.2L585.4,116z"/>
				<path class="st0" d="M608.7,116c-0.4-0.4-0.9-0.8-1.6-1.1c-0.7-0.3-1.4-0.4-2.2-0.4c-1.2,0-2.1,0.2-2.7,0.7
					c-0.6,0.5-0.8,1.1-0.8,1.9c0,0.4,0.1,0.8,0.2,1c0.2,0.3,0.4,0.5,0.7,0.7s0.7,0.4,1.2,0.5c0.5,0.1,1.1,0.3,1.7,0.4
					c0.7,0.2,1.4,0.3,2,0.5s1.1,0.4,1.5,0.7c0.4,0.3,0.7,0.7,1,1.1s0.3,0.9,0.3,1.6c0,0.6-0.1,1.2-0.4,1.7c-0.2,0.5-0.6,0.9-1,1.2
					c-0.4,0.3-1,0.5-1.6,0.7s-1.3,0.2-2,0.2c-2.2,0-4-0.7-5.6-2l0.7-1.1c0.2,0.3,0.5,0.5,0.9,0.7c0.3,0.2,0.7,0.4,1.2,0.6
					c0.4,0.2,0.9,0.3,1.4,0.4c0.5,0.1,1,0.1,1.5,0.1c1.1,0,2-0.2,2.6-0.6c0.6-0.4,0.9-1,0.9-1.8c0-0.4-0.1-0.8-0.3-1.1
					c-0.2-0.3-0.4-0.5-0.8-0.8c-0.4-0.2-0.8-0.4-1.3-0.6s-1.1-0.3-1.8-0.5c-0.7-0.2-1.4-0.3-1.9-0.5s-1-0.4-1.4-0.7
					c-0.4-0.3-0.7-0.6-0.9-1c-0.2-0.4-0.3-0.9-0.3-1.4c0-0.6,0.1-1.2,0.4-1.7c0.2-0.5,0.6-0.9,1-1.3c0.4-0.3,1-0.6,1.6-0.8
					c0.6-0.2,1.3-0.3,2-0.3c0.9,0,1.8,0.1,2.5,0.4s1.4,0.7,2,1.2L608.7,116z"/>
				<path class="st0" d="M632.6,127.4v-11.4l-5.1,8.9h-0.8l-5.1-8.9v11.4h-1.4v-13.9h1.4l5.4,9.5l5.5-9.5h1.4v13.9H632.6z"/>
				<path class="st0" d="M644.5,127.5c-1,0-1.9-0.2-2.7-0.6c-0.8-0.4-1.5-0.9-2.1-1.6c-0.6-0.7-1-1.4-1.3-2.3
					c-0.3-0.9-0.5-1.7-0.5-2.6c0-0.9,0.2-1.8,0.5-2.7s0.8-1.6,1.4-2.3c0.6-0.7,1.3-1.2,2.1-1.6c0.8-0.4,1.7-0.6,2.6-0.6
					c1,0,1.9,0.2,2.7,0.6c0.8,0.4,1.5,1,2.1,1.6s1,1.4,1.3,2.3c0.3,0.8,0.5,1.7,0.5,2.6c0,0.9-0.2,1.8-0.5,2.7
					c-0.3,0.9-0.8,1.6-1.4,2.2c-0.6,0.6-1.3,1.2-2.1,1.6C646.3,127.3,645.4,127.5,644.5,127.5z M639.3,120.4c0,0.8,0.1,1.5,0.4,2.2
					s0.6,1.3,1.1,1.9s1,1,1.6,1.3c0.6,0.3,1.3,0.5,2.1,0.5c0.8,0,1.5-0.2,2.1-0.5s1.2-0.8,1.6-1.3s0.8-1.2,1-1.9
					c0.2-0.7,0.4-1.4,0.4-2.1c0-0.8-0.1-1.5-0.4-2.2c-0.3-0.7-0.6-1.3-1.1-1.9c-0.5-0.5-1-1-1.6-1.3c-0.6-0.3-1.3-0.5-2.1-0.5
					c-0.8,0-1.5,0.2-2.1,0.5c-0.6,0.3-1.2,0.8-1.6,1.3c-0.4,0.5-0.8,1.2-1,1.9C639.4,119,639.3,119.7,639.3,120.4z"/>
				<path class="st0" d="M665.5,123.8c0,0.5-0.1,1-0.3,1.4c-0.2,0.4-0.5,0.8-0.8,1.1c-0.4,0.3-0.8,0.6-1.2,0.7
					c-0.5,0.2-1,0.3-1.5,0.3H655v-13.9h6.7c0.5,0,0.9,0.1,1.3,0.3c0.4,0.2,0.7,0.5,1,0.8c0.3,0.3,0.5,0.7,0.6,1.1s0.2,0.9,0.2,1.3
					c0,0.7-0.2,1.4-0.5,1.9c-0.4,0.6-0.8,1-1.5,1.3c0.8,0.2,1.4,0.7,1.9,1.3C665.2,122.2,665.5,122.9,665.5,123.8z M656.4,114.6v5.1
					h4.8c0.3,0,0.7-0.1,1-0.2c0.3-0.1,0.5-0.3,0.8-0.6c0.2-0.2,0.4-0.5,0.5-0.8c0.1-0.3,0.2-0.6,0.2-1c0-0.4-0.1-0.7-0.2-1
					c-0.1-0.3-0.3-0.6-0.5-0.8c-0.2-0.2-0.4-0.4-0.7-0.5c-0.3-0.1-0.6-0.2-0.9-0.2H656.4z M664.1,123.5c0-0.3-0.1-0.7-0.2-1
					c-0.1-0.3-0.3-0.6-0.5-0.8s-0.5-0.4-0.8-0.6c-0.3-0.2-0.6-0.2-1-0.2h-5.3v5.3h5.2c0.4,0,0.7-0.1,1-0.2c0.3-0.1,0.6-0.3,0.8-0.6
					c0.2-0.2,0.4-0.5,0.5-0.8C664,124.2,664.1,123.9,664.1,123.5z"/>
				<path class="st0" d="M669.4,127.4v-13.9h1.4v13.9H669.4z"/>
				<path class="st0" d="M675.7,127.4v-13.9h1.4v12.7h8.1v1.2H675.7z"/>
				<path class="st0" d="M697.9,126.1v1.2h-9.4v-13.9h9.2v1.2h-7.8v5h6.8v1.2h-6.8v5.3H697.9z"/>
				<path class="st0" d="M709.7,116c-0.4-0.4-0.9-0.8-1.6-1.1c-0.7-0.3-1.4-0.4-2.2-0.4c-1.2,0-2.1,0.2-2.7,0.7
					c-0.6,0.5-0.8,1.1-0.8,1.9c0,0.4,0.1,0.8,0.2,1c0.2,0.3,0.4,0.5,0.7,0.7s0.7,0.4,1.2,0.5c0.5,0.1,1.1,0.3,1.7,0.4
					c0.7,0.2,1.4,0.3,2,0.5s1.1,0.4,1.5,0.7c0.4,0.3,0.7,0.7,1,1.1s0.3,0.9,0.3,1.6c0,0.6-0.1,1.2-0.4,1.7c-0.2,0.5-0.6,0.9-1,1.2
					c-0.4,0.3-1,0.5-1.6,0.7s-1.3,0.2-2,0.2c-2.2,0-4-0.7-5.6-2l0.7-1.1c0.2,0.3,0.5,0.5,0.9,0.7c0.3,0.2,0.7,0.4,1.2,0.6
					c0.4,0.2,0.9,0.3,1.4,0.4c0.5,0.1,1,0.1,1.5,0.1c1.1,0,2-0.2,2.6-0.6c0.6-0.4,0.9-1,0.9-1.8c0-0.4-0.1-0.8-0.3-1.1
					c-0.2-0.3-0.4-0.5-0.8-0.8c-0.4-0.2-0.8-0.4-1.3-0.6s-1.1-0.3-1.8-0.5c-0.7-0.2-1.4-0.3-1.9-0.5s-1-0.4-1.4-0.7
					c-0.4-0.3-0.7-0.6-0.9-1c-0.2-0.4-0.3-0.9-0.3-1.4c0-0.6,0.1-1.2,0.4-1.7c0.2-0.5,0.6-0.9,1-1.3c0.4-0.3,1-0.6,1.6-0.8
					c0.6-0.2,1.3-0.3,2-0.3c0.9,0,1.8,0.1,2.5,0.4s1.4,0.7,2,1.2L709.7,116z"/>
			</g>
		</g>
	</g>
	<g>
		<path class="st0" d="M53.5,42.6l-10.8-3.7c-0.5,4.3,0.9,10,4.1,13C48.4,49.1,51.2,45,53.5,42.6z"/>
		<path class="st0" d="M85.3,46.3c-6.1,1-6.3-0.3-11.4-0.5c-5.1-0.3-7.2,2.6-7.2,2.6s3-0.6,4,0c1,0.6,1.4,2.7,4.6,2.7
			c2,0,4.2-0.1,5.7-0.6c0.4,0.6,1.6,1.1,2.9,2.2C82.3,50.1,82.1,47.8,85.3,46.3z"/>
		<path class="st0" d="M73.6,96.6c1.3,5.2,1.2,12.4,0.5,17.7c-4.5-11.1-16.1-17-24.1-25.8c-8.1-9-12.5-20.3-3.8-35.7
			C35.4,57.3,26,68.2,25.9,80.3c1.5-1.1,3.3-2.3,5.6-3.6c-4.3,18,5.6,28.4,10.7,37.3c2.7,4.6,4.2,8.7,0.6,13.5h14.8
			C53.8,115.3,39,106.8,42,91.6c6.5,13.3,15.9,13.6,23,28.4c1.3-2.3,1.9-5.1,2.4-7.7c3.7,6.3,4.9,11.2,4,15.1h16.5
			C87.4,115.4,92.3,106.6,73.6,96.6z"/>
		<path class="st0" d="M4.8,3.8v41.9c0.7-1,1.4-1.9,2-2.7C13.7,34.4,21,33,31.5,33.9c-7.5,6.2-19.4,15.4-23.2,28
			c3.1-0.5,6.4-1.1,7.3-1.2c-4.5,4.1-8.1,10.6-10.8,16.8v50h26.7c0-1.9-0.2-3.6-0.6-5c-3.2-10.8-8.8-11.6-11.6-29.1
			c-1.8,2.1-4.1,5-5.8,7.3C10.3,84.1,14,67.1,26.9,55.3c-2.6-0.1-5.8-0.2-8.9-0.3c4.3-5,11.5-10.6,16.4-14.2c1,2.5,2.8,5.2,5.7,7.4
			c-4.3-5.7-2-15.3-2-15.3l19.8,4.1c3.1-2.6,8.3-4.1,8.3-4.1c-1.6-1.2-4.3-2.3-6.2-3.1c8.8,0.4,15.4,2,23.2,6.6l1.9-3.2
			c0,0,10.8,7.9,13,9.7c2.2,1.8,2.6,3.8,1.6,3.7c-1-0.1-5.9-1.7-5.9-1.7s14,9.9,14.1,11c0.1,1.1-0.6,1.8-4.8,1.7
			c-4.2,0-7.1-1-8.7-0.2c-1.7,0.9-4.3-0.1-4.3-0.1s1.1,2.5,5.4,4.1c4.2,1.6,7.1,4.7,5.4,9.3c-0.8,2.7-12,6.3-20,4.6
			c-12-2.6-10.2-17.7,2.8-16.8c-11-6.7-18.2,7.7-27.3,1.2c0,0,1.1,4.6,5.3,8.3c-8.2-0.8-13.4-3.6-13.7-12.5
			c-7.7,16.7,12.6,21.4,17.2,34.1c1.3-3.6,0.6-6.1-1.4-12c16.3,6.3,24.1,16.8,33.2,30.9c2.6-9.5,9.2-14.1,9.2-14.1s-0.9,5.2,0.5,11
			c2.8,11.9-4.3,14.5-11.7,22.1h33.6V3.8H4.8z M81,33.1c0.2-2.2,0-5.8-1.1-7.8c-2.7-4.8-11.8-3.8-16.3-2.9c3.7,1,7.5,3.4,9.7,6
			c-7-2-19-3.2-25.2-2.1c5.5,2.9,10.5,7.1,10.5,7.1c-15.3-2.1-26.7-7.3-42.4-3.6c8.4-7.2,17.9-10.2,27.8-9.8
			c-1.5-1.7-2.4-3.9-2.2-6.8c7.6,5.9,23.6,2.3,31.4,1.8c3.3-0.2,7.6,0.8,10.4,3.7C89.1,24.3,84.5,28.3,81,33.1z M103.5,90.3
			c0,0-1.7-2.8-5.8-2c-4,0.8-5.4,3.1-5.4,3.1C88.4,89.2,82,82,82,77.1c6,2.9,10.3,2.5,16.2-0.9c3.3-1.9,4.5-1.7,5.8-1.1
			c0,0,4.5,4,4.7,8C109,87,103.5,90.3,103.5,90.3z M109.7,70.3c-1.7,3-5.2,3.7-6.6,0c-1.8-4.6,3.6-8.4,6.3-11.5
			c-0.1,2.1,0.5,3.6,0.9,5.2C110.9,66.6,110.5,68.8,109.7,70.3z"/>
	</g>
</g>
</svg>
