<?xml version="1.0" encoding="utf-8"?>
<!-- Generator: Adobe Illustrator 26.3.1, SVG Export Plug-In . SVG Version: 6.00 Build 0)  -->
<svg version="1.1" id="Calque_2_00000051378017467881585920000002442422893235161749_"
	 xmlns="http://www.w3.org/2000/svg" xmlns:xlink="http://www.w3.org/1999/xlink" x="0px" y="0px" viewBox="0 0 372.7 159.6"
	 style="enable-background:new 0 0 372.7 159.6;" xml:space="preserve">
<style type="text/css">
	.st0{fill:#FFFFFF;}
	.st1{fill:#FFFFFF;stroke:#FFFFFF;stroke-width:2;stroke-miterlimit:10;}
	.st2{enable-background:new    ;}
</style>
<g id="Calque_1-2">
	<path class="st0" d="M97.7,100.5c-1.9-7-3.9-14-5.8-21c-1.8-6.4-3.5-12.8-5.3-19.2c-1.7-6-3.4-12-5.2-17.9C81.1,41,80.3,40,79,39.6
		c-0.6-0.2-1.3-0.2-1.9-0.2c-2.2,0-4.4,0-6.6,0v0c-2.5,0-4.9,0-7.4,0c-1.7,0-3,0.8-3.5,2.5c-0.8,2.5-1.5,5-2.2,7.5
		c-0.4,1.5,0,2.3,1.1,2.9c0.3,0.1,0.6,0.2,0.9,0.3c3.1,0.7,6.1,1.5,9.2,2.2c1.8,0.4,2.5,1.1,2.8,2.9c0.3,1.7,0.7,3.4,1,5.1
		c0.5,2.5,1,4.9,1.5,7.4c0.6,2.6,1.1,5.1,1.7,7.7c0.2,1.1,0.5,2.2,0.7,3.3c0.2,0.8-0.1,1.3-0.9,1.5c-0.6,0.1-1.3,0.1-1.9,0.2
		c-2.1,0.2-3,1.1-3.4,3.1c-0.3,1.6-0.6,3.3-0.9,4.9c-0.1,0.8-0.3,1.6-0.3,2.4c0,0.8,0.3,1.3,1.1,1.5c0.6,0.2,1.2,0.2,1.8,0.3
		c1.6,0,3.1,0,4.7,0c1.8,0,2.7,0.9,3.2,2.6c0.7,2.8,1.3,5.5,1.9,8.3c0.3,1.4,0.9,2.5,2.4,2.9c0.6,0.2,1.2,0.2,1.8,0.2
		c3.8,0,7.5,0,11.3,0c0.3,0,0.6,0,0.8,0c1.6-0.2,2.1-0.9,1.8-2.4C98.9,104.6,98.3,102.5,97.7,100.5"/>
	<path class="st0" d="M123.7,41.3c-0.2-0.8-0.6-1.4-1.3-1.6c-0.6-0.2-1.3-0.3-2-0.3c-3.2,0-6.5,0-9.8,0c-0.3,0-0.6,0-0.9,0
		c-1.4,0.1-2.2,0.8-2.5,1.9c-0.1,0.5-0.1,0.9-0.1,1.4c0,10.5,0,21,0,31.5s0,20.9,0,31.4c0,0.4,0,0.8,0,1.2c0.1,1.1,0.7,1.8,1.7,2.1
		c0.4,0.1,0.8,0.2,1.2,0.2c1.9,0,3.9,0,5.8,0c2.1,0,3.3-1,4-3c0.8-2.4,1.6-4.8,2.5-7.2c0.8-2.3,1.4-4.7,1.4-7.1
		c0-16.4,0-32.8,0-49.1C123.8,42.2,123.8,41.7,123.7,41.3"/>
	<path class="st0" d="M64.1,63.1c-2.2-0.5-4.4-1-6.6-1.6c-0.3-0.1-0.7-0.1-1-0.2c-1.8-0.2-2.9,0.5-3.4,2.3
		c-1.2,4.4-2.5,8.9-3.7,13.3c-1.3,4.6-2.6,9.2-3.9,13.8c-1.3,4.5-2.5,9-3.8,13.5c-0.2,0.8-0.5,1.6-0.6,2.4c-0.2,1.2,0.3,1.9,1.4,2.2
		c0.4,0.1,0.8,0.1,1.2,0.1c1.8,0,3.6,0,5.4,0l0,0c2,0,4,0,6,0c1.8,0,2.9-0.9,3.3-2.7c0.9-3.9,1.8-7.7,2.6-11.6
		c1.1-5.2,2.1-10.3,3-15.5c0.8-4.3,1.4-8.7,2.2-13c0.1-0.5,0.1-1,0-1.5C65.9,63.7,65,63.3,64.1,63.1"/>
	<path class="st0" d="M146.5,96.6c-0.4-1.2-1.4-1.6-2.6-1.6c-3.3,0-6.6-0.1-9.9,0c-2.1,0-3.2,1.1-3.5,3.2c-0.3,2.1-0.7,4.1-1,6.2
		c-0.1,0.8-0.3,1.6-0.4,2.3c-0.1,1.2,0.4,2,1.6,2.2c0.4,0.1,0.9,0.1,1.3,0.1c1.9,0,3.7,0,5.5,0l0,0c2,0,4.1,0,6.1,0
		c2,0,2.9-0.9,2.9-2.9c0-0.1,0-0.1,0-0.2c0-2.7,0-5.3,0-8C146.7,97.5,146.6,97,146.5,96.6"/>
	<g>
		<path class="st1" d="M290.2,70.7c-0.9,2-2.2,3.7-4.1,4.8c-1,0.6-2.1,1-3.3,1.1c-0.1,0-0.2,0-0.4,0c0.4-0.8,0.7-1.5,1-2.2
			c1.2-2.3,2.6-4.5,4.2-6.6c0.7-0.9,1.6-1.7,2.7-2.1c0.6-0.3,0.8-0.2,0.8,0.5C291.4,67.8,290.9,69.3,290.2,70.7 M266,65.1
			c0.1,0.4,0.1,1.6-1.3,3c-1,1-2.7,1.7-3.9,2.2c0,0-0.2-1.5-0.4-1.6c1-1.4,2.7-4.9,5.2-3.7 M289.7,63.8c-1.4,1-2.7,2.2-3.6,3.6
			c-1.1,1.7-2.1,3.4-3,5.1c-0.7,1.2-1.2,2.4-1.8,3.6c-0.1,0.2-0.2,0.3-0.4,0.5c0,0-0.1,0-0.1-0.1c-0.1-0.7-0.2-1.3-0.2-1.9
			c0.1-1.4,0.2-2.8,0.3-4.3c0-1,0-2.1-0.1-3.1c0-0.4-0.3-0.8-0.6-1.2c-0.3-0.4-0.8-0.4-1.3-0.3c-0.4,0.1-0.5,0.4-0.6,0.8
			c0,0.3-0.1,0.6-0.1,0.9c0,0.3-0.1,0.6-0.4,0.8c-2,1.4-4.1,2.8-6.1,4.3c-2.2,1.6-4.5,2.7-7,3.7c-1.1,0.4-2.2,0.8-3.5,0.7
			c-1.5-0.2-2.3-0.9-2.3-2.5c0-1,0.2-1.9,0.6-2.8c0.1-0.3,0.3-0.4,0.6-0.5c1-0.1,2-0.3,3-0.8c1.4-0.8,2.6-1.8,3.4-3.2
			c0.3-0.7,0.5-1.4,0.3-2.1c-0.3-1-1.5-1.6-2.5-1.3c-1.5,0.3-2.7,1.1-3.7,2.3c-0.2,0.2-0.4,0.4-0.7,0.4c-0.2,0-0.5,0.2-0.6,0.3
			c-0.7,0.6-1.3,1.2-2,1.9c-0.1,0.1-0.3,0.2-0.4,0.2c-0.3,0.1-0.5,0.1-0.5,0.5c0,0.1-0.1,0.2-0.1,0.3c-0.3,0.3-0.6,0.6-1,0.9
			c-2.4,2.2-5.1,4.2-7.8,6.2c-0.9,0.6-1.9,1.1-2.9,1.7c-0.9,0.5-1.8,0.8-2.7,0.8c-0.9,0-1.1-0.4-1.3-1c-0.3-0.9-0.2-1.8,0.1-2.7
			c0.5-1.6,1.2-3.1,2.1-4.5c0.8-1.2,1.8-2.3,3.2-3c0.5-0.2,0.6-0.2,0.9,0.3c0,0.1,0.1,0.1,0.1,0.1c0.2,0.4,0.6,0.5,0.9,0.1
			c0.4-0.5,0.5-1.3,0.1-2c-0.5-0.8-1.3-1.2-2.1-0.9c-1.4,0.4-2.7,1-3.6,2.1c-1.1,1.3-2.4,2.4-3.6,3.5c-2,1.8-4,3.8-6.3,5.3
			c-0.7,0.5-1.5,0.9-2.3,1.3c-1.4,0.6-2.1,0.1-2.8-1.2c-0.1-0.1-0.1-0.2-0.1-0.3c-0.5-2.1-1-4.3-1.5-6.4c-0.3-1.1-0.5-2.2-1.4-2.9
			c-0.7-0.6-1.6-0.7-2.3,0c-0.4,0.4-0.8,0.9-1.1,1.4c-1,1.9-2.1,3.8-2.8,5.9c-0.1,0.4-0.3,0.8-0.5,1.1c-0.1-0.2-0.1-0.3-0.1-0.4
			c0.3-2.7,0.6-5.3,0.9-8c0-0.3,0.1-0.4,0.4-0.4c0.5,0,0.6-0.1,0.5-0.5c-0.1-0.6-0.2-1.1-0.4-1.6c-0.4-1-1.4-1.2-2-0.3
			c-0.4,0.6-0.7,1.2-0.8,1.9c-0.3,1.6-0.6,3.2-0.8,4.8c-0.4,2.7-0.6,5.3-0.4,8.1c0,0.7,0.2,1.4,0.6,2c0.5,0.7,1.4,0.8,1.9,0.1
			c0.1-0.2,0.3-0.4,0.4-0.7c0.5-1.4,1-2.8,1.5-4.2c0.7-1.8,1.4-3.7,2.2-5.5c0.4-0.8,0.9-1.6,1.6-2.3c0.1,0.1,0.1,0.2,0.2,0.3
			c0.6,1.2,0.8,2.6,1.1,3.9c0.4,1.7,0.7,3.3,1.4,4.9c1,2.4,3.3,3.1,5.4,1.8c1-0.7,2-1.3,3-2c1.4-1.1,2.7-2.3,4.1-3.5
			c0.1-0.1,0.2-0.2,0.3-0.3c0,0.2,0,0.3,0,0.4c-0.5,1.6-0.8,3.2-0.4,4.9c0.4,1.8,1.8,2.9,3.5,2.9c1.1,0,2.1-0.2,3.1-0.7
			c1.9-0.9,3.5-2.1,5.1-3.5c2.4-2.1,4.8-4.3,7.3-6.4c0.1-0.1,0.2-0.1,0.4-0.3c-0.1,0.2-0.1,0.3-0.1,0.4c-0.4,1.2-0.7,2.4-0.7,3.6
			c0.1,2.6,2,4.4,4.6,4.4c1.7,0,3.4-0.4,4.8-1.2c1.8-1.1,3.6-2.2,5.4-3.3c2-1.3,3.8-2.7,5.7-4.1c0.3-0.2,0.6-0.4,1-0.7
			c0,0.2,0,0.2,0,0.3c-0.1,1.2-0.2,2.3-0.2,3.4c-0.2,4.3-0.5,8.7-0.8,13c0,0.8-0.1,1.7-0.2,2.5c-0.2,1.8-0.6,3.6-0.8,5.5
			c-0.3,2.4-0.4,4.8-0.2,7.2c0,0.5,0.3,1.1,0.5,1.6c0.2,0.5,0.8,0.6,1.3,0.4c0.7-0.3,1-0.9,1.1-1.6c0.1-0.9,0.2-1.9,0.2-2.8
			c0.3-5.4,0.6-10.8,0.9-16.2c0.1-1.3,0.4-2.6,1-3.8c0.2-0.3,0.4-0.4,0.7-0.4c1.5,0.1,2.9-0.1,4.3-0.6c2.3-0.9,4-2.4,5.4-4.4
			c1.6-2.2,2.5-4.7,2.5-7.5c0-0.9-0.3-1.6-0.9-2.3C292.3,63.3,290.8,63.1,289.7,63.8"/>
		<path class="st1" d="M215,87.2c-0.1-0.2-0.5-0.3-0.8-0.2c-0.2,0.1-0.3,0.4-0.4,0.7c-0.1,0.2,0,0.4,0.1,0.6
			c0.1,0.5,0.2,1.1-0.1,1.6c-0.4,0.8-0.8,1.5-1.3,2.2c-1.3,1.6-3,2.8-4.7,3.8c-3.5,2.2-7.3,4-11.2,5.5c-4.7,1.8-9.5,3.4-14.6,3.9
			c-2.1,0.2-4.3,0.3-6.4-0.3c-2.6-0.7-4.6-2.1-6-4.5c-1.3-2.2-1.7-4.6-1.9-7.1c-0.1-2.2,0.1-4.3,0.4-6.5c0.4-2.8,0.9-5.6,1.7-8.4
			c0.9-3.1,2-6.1,3.2-9.1c1.9-4.5,3.9-8.9,6.7-13c2.9-4.4,6.2-8.6,10.7-11.5c1.2-0.8,2.4-1.1,3.8-1.1c0.2,0,0.3,0.1,0.5,0.2
			c0.7,0.5,1.1,1.2,1.1,2c0,1.2,0,2.4-0.1,3.6c-0.1,1.7-0.5,3.4-1.1,5c-0.2,0.5-0.5,0.8-1,0.8c-0.8,0.1-1.1,0.7-0.8,1.4
			c0.2,0.5,0.4,0.9,0.8,1.3c0.6,0.8,1.9,0.7,2.5-0.1c0.4-0.7,0.8-1.4,1.1-2.2c0.7-1.6,1-3.4,1.3-5.1c0.3-2,0.4-3.9-0.1-5.9
			c-0.3-1.5-1.1-2.7-2.5-3.4c-1.2-0.7-2.5-0.5-3.8-0.2c-2,0.4-3.7,1.5-5.2,2.8c-2.9,2.5-5.4,5.3-7.6,8.4c-3,4.3-5.6,8.9-7.6,13.7
			c-2.4,5.6-4.4,11.4-5.7,17.5c-0.6,2.8-1,5.6-1,8.4h-0.1c0.2,1.7,0.3,3.3,0.6,4.9c0.3,1.8,0.9,3.4,1.8,4.9c2.2,3.7,5.7,5.4,9.9,5.8
			c2.6,0.3,5.2-0.1,7.8-0.7c4.6-1,9-2.4,13.3-4.2c4.1-1.7,8.1-3.8,11.8-6.4c1.5-1.1,2.9-2.2,4.1-3.7c0.9-1.2,1.4-2.6,1.3-4.1
			C215.5,88,215.3,87.5,215,87.2"/>
		<path class="st1" d="M347.2,47.7c-0.5-0.1-0.9-0.3-1.4-0.4c-2.7-0.5-5.4-0.8-8.1-0.7c-4.4,0.1-8.8,0.2-13.2,0.6
			c-1.7,0.2-3.5,0.4-5.2,0.6c-1.9,0.2-3.8,0.5-5.8,0.7c-1.6,0.2-3.2,0.4-4.9,0.5c-2,0.2-3.9,0.4-5.9,0.6c-0.3,0-0.4,0-0.4-0.3
			c0-0.9,0.1-1.7,0.1-2.6c0.1-3,0.3-6.1,0.1-9.1c0-0.5-0.2-0.8-0.6-0.9c-0.5-0.2-1-0.1-1.2,0.3c-0.2,0.3-0.5,0.6-0.5,0.9
			c-0.2,0.8-0.4,1.5-0.5,2.3c-0.3,3.2-0.5,6.4-0.8,9.6c0,0.3-0.1,0.4-0.4,0.4c-1.1,0.1-2.2,0.2-3.3,0.4c-1.8,0.3-3.7,0.5-5.5,0.8
			c-1.9,0.3-3.8,0.7-5.7,1c-2.1,0.3-4.3,0.7-6.4,1c-0.9,0.1-1.8,0.3-2.7,0.2c-0.2,0-0.3,0-0.5,0c-0.3,0-0.5,0.2-0.6,0.5
			s0,0.6,0.3,0.8c0.2,0.1,0.5,0.2,0.7,0.3c0.9,0,1.8,0.1,2.6,0c2.4-0.3,4.9-0.6,7.3-0.9c1.6-0.2,3.2-0.5,4.8-0.8
			c2.2-0.4,4.4-0.7,6.6-1.1c0.9-0.1,1.8-0.2,2.7-0.4c0,0.2,0,0.4,0,0.5c0,1-0.1,2-0.1,3c-0.2,5.1-0.5,10.2-0.7,15.2
			c-0.3,9.7,0.1,19.5,0.4,29.2c0,1,0.2,1.9,0.3,2.9c0.1,0.6,0.4,0.8,0.9,0.8c0.5,0,1-0.2,1.1-0.8c0.1-0.4,0.2-0.9,0.2-1.3
			c0.1-2.3,0.1-4.6,0.1-6.8c0-6.5,0.1-12.9,0.4-19.4c0.2-5,0.3-10.1,0.4-15.1c0.1-2.7,0.3-5.5,0.4-8.2c0-0.4,0.1-0.6,0.5-0.6
			c2.8-0.3,5.6-0.7,8.4-1c3.1-0.4,6.3-0.8,9.5-1.1c4-0.4,8-0.8,12.1-1.1c3.2-0.3,6.4-0.3,9.6-0.1c1.4,0.1,2.8,0.3,4.1,0.8
			c0.2,0.1,0.4,0.1,0.6,0.1c0.4,0,0.7-0.2,0.8-0.5C347.8,48.1,347.6,47.8,347.2,47.7"/>
		<path class="st1" d="M203,75.2c0.1-2.1,1-4,2-5.9c0.3-0.5,0.6-1,0.9-1.6c0.2,0.2,0.3,0.4,0.4,0.5c0.9,1.3,1.4,2.9,1.6,4.4
			c0.2,1.2,0.2,2.5-0.1,3.7c-0.4,1.4-1.2,2.3-2.6,2.7c-0.9,0.3-2-0.4-2.1-1.4C203,76.9,203,76.1,203,75.2 M204.8,81.6
			c1.2-0.1,2.1-0.7,3.1-1.3c1-0.7,1.6-1.7,1.9-2.9c0.5-2.3,0.3-4.5-0.3-6.7c-0.4-1.3-0.9-2.5-1.7-3.6c0.8,0,1-0.3,0.9-1
			c-0.1-0.9-1.5-1.7-2.3-1.2c-0.4,0.2-0.8,0.3-1.2,0.1c-0.9-0.6-2.2,0.1-2.5,1.1c-0.2,0.8-0.2,1.6-0.1,2.4c0,0.2,0,0.4-0.1,0.6
			c-0.5,1.1-1,2.2-1.5,3.3c-0.8,1.8-1,3.6-0.7,5.5C200.5,79.8,201.9,81.8,204.8,81.6"/>
	</g>
	<polygon class="st0" points="361.7,0 11,0 0,0 0,11 0,141 0,152 11,152 257.6,152 257.6,141 11,141 11,11 361.7,11 361.7,141 
		361.7,152 372.7,152 372.7,141 372.7,11 372.7,0 	"/>
	<g class="st2">
		<path class="st0" d="M274.8,135h-4.9v16.5h-4V135H261v-3.3h13.8V135z"/>
	</g>
	<g class="st2">
		<path class="st0" d="M290.7,143.3c0,2.7-0.6,4.7-1.9,6.2c-1.3,1.5-3,2.2-5.2,2.2c-2.2,0-4-0.7-5.3-2.2s-1.9-3.5-1.9-6.1V140
			c0-2.7,0.6-4.9,1.9-6.4c1.3-1.5,3-2.3,5.3-2.3c2.2,0,4,0.8,5.2,2.3c1.3,1.5,1.9,3.6,1.9,6.3V143.3z M288.3,130.1v0.2l-3,0l-1.7-2
			l-1.7,2l-2.9,0v-0.2l3.5-3.8h2.2L288.3,130.1z M286.7,140c0-1.8-0.3-3.1-0.8-4c-0.5-0.9-1.3-1.3-2.4-1.3c-1.1,0-1.9,0.4-2.4,1.3
			s-0.8,2.1-0.8,3.8v3.5c0,1.7,0.3,3,0.8,3.8c0.5,0.8,1.3,1.2,2.4,1.2c1,0,1.8-0.4,2.3-1.2s0.8-2.1,0.8-3.7V140z"/>
		<path class="st0" d="M297.6,148.2h7v3.3h-11.1v-19.9h4V148.2z"/>
		<path class="st0" d="M317.2,142.9H311v5.3h7.4v3.3H307v-19.9h11.4v3.3H311v4.7h6.3V142.9z"/>
		<path class="st0" d="M326.7,144.2h-2v7.3h-4v-19.9h6.4c2,0,3.6,0.5,4.7,1.6c1.1,1,1.6,2.5,1.6,4.4c0,2.6-1,4.5-2.9,5.5l3.5,8.1
			v0.2h-4.3L326.7,144.2z M324.7,140.9h2.3c0.8,0,1.4-0.3,1.8-0.8c0.4-0.5,0.6-1.2,0.6-2.1c0-2-0.8-3-2.3-3h-2.3V140.9z"/>
		<path class="st0" d="M340.4,151.5h-4v-19.9h4V151.5z"/>
		<path class="st0" d="M354,142.9h-6.3v5.3h7.4v3.3h-11.4v-19.9h11.4v3.3h-7.4v4.7h6.3V142.9z"/>
	</g>
</g>
</svg>
