<svg xmlns="http://www.w3.org/2000/svg" width="362" height="105">
  <g fill="none">
    <path fill="#005780" d="M158.622 42.815c-4.615 2.67-9.786 2.58-8.448 1.681 6.183-4.173 9.04-12.95 9.04-12.95-6.932 8.028-19.737 6.5-17.33 5.328 5.186406-2.563102 9.41741-6.7173702 12.075-11.856-6.96 4.178-13.9 2.354-12.075 1.674 6.075-2.266 9.764-9.013 9.764-9.013-4.28 1.7-8.707.708-7.153.175 3.439-1.168 7.513-4.391 7.848-5.47-1.261937.1319082-2.53654-.064794-3.7-.571-.719-.4-.02-.541.5-.691a35.80001524 35.80001524 0 004.839-1.674c2.893-1.29 10.885-4.523 10.753-2.027-.063 1.161-1.973.786-2.651 4.595-.546 3.045.292 8.971 6.119 8.971 2.061788-.0418131 3.948791-1.167554 4.965-2.962 1.62-3.162-4.945-7.17-6.314-4.282-.147234-.3542403-.233127-.7309485-.254-1.114-.056249-.5469284.104241-1.0941033.447-1.524.539588-.4581834 1.226156-.7066827 1.934-.7l1.165-.119c.528044-.5600424 1.254843-.8904055 2.024-.92.526-.034 3.848-.165 5.1.352 2.974 1.224 2.487 3.348 2.487 16.851v44.158s-12.163-7.456-16.508-14.975c-2.338845-3.9843654-3.909031-8.3723383-4.629-12.936m18.519-36.119l-7.319-.008-1.719-5.4c.38413-.05372642.77387-.05372642 1.158 0 .849.078 1.6.3 1.439 1.239-.127.739-.051 1.476 1.031 1.312.915-.139.791-.851.213-1.518-1.219-1.711 1.545-2.333 1.545-2.333s2.685.622 1.468 2.332c-.577.666-.7 1.379.213 1.518 1.08.165 1.156-.573 1.029-1.312-.16-.935.592-1.161 1.442-1.239.383896-.05542448.77364-.05710731 1.158-.005l-1.658 5.414z"/>
    <path fill="#E3DAB2" d="M181.711 70.711l.013-49.795c1.308145-.7717681 2.351144-1.9225192 2.991-3.3 1.219-2.345 2.116-6.989 4.414-8.954.639125-.57084031 1.365257-1.03602362 2.151-1.378 0 0 .24 1.481.836 1.655 1.244.358 4.107-1.369 4.107-1.369s.259 1.976 1 1.991c1.431799-.1066175 2.849256-.3568752 4.231-.747 0 0-1.48 1.9-.1 2.421 1.550022.3311648 3.138836.443257 4.72.333 0 0-1.514 1.458-1.092 2.237.871 1.621 3.814 1.484 3.814 1.484s-1.621 1.618-1.121 3.235c.343 1.121 3.419 1.908 3.419 1.908.693-.013-6.623.906-6.23 4.457.15 1.341 7.813 2.517 7.813 2.517s-1.544.741-1.148 1.608c.396.867 4.705 2.75 4.705 2.75s-3.077 1.119-3.077 2.154 2.852 2.556 2.852 2.556-2.893.634-3.1 1.655c-.066.323 2.065 2.59 2.065 2.59s-3.136.688-3.444 1.381c-.308.693.162 3.353.162 3.353s-4.77-2.438-5.559-1.745c-.789.693-.573 2.408-.573 2.408s-4.242-.609-6.223-2.509c-1.981-1.9-3.6-3.853-4.653-3.05-1.373 1.046-.168 2.739 2.049 4.45 2.992 2.3 6.005 6.176 5.237 6.245-.818.066-1.78-.183-2.123.538-.3.642.2 3.089.2 3.089-.948161.1276514-1.85831.4555781-2.67.962-.634.637.58 3.414.58 3.414s-2.984-.183-3.461.536c-.477.719-.206 3.214-.206 3.214s-2.438-.429-2.908.117c-.569.653-.365 2.987-.365 2.987s-1.893-.659-2.73-.018c-3.434 2.629-6.573 4.617-6.573 4.617"/>
    <path fill="#005780" d="M244.024 55.436c-4.269 0-7.571-1.171-10.095-3.579-2.557436-2.7147028-3.920661-6.3408447-3.785-10.068 0-8.346 5.875-13.954 14.619-13.954 2.314268-.052388 4.614584.3717306 6.758 1.246l.321.157-1.103 3.559-.431-.2c-1.767097-.7826218-3.688476-1.1549317-5.62-1.089-6.251 0-10.137 3.884-10.137 10.134 0 6.273 3.721 10.17 9.705 10.17 1.389184.0673245 2.778917-.1211369 4.1-.556v-7.14h-5.295v-3.557h9.466V53.87l-.262.1c-2.640687.9646617-5.429634 1.4604518-8.241 1.465M272.806 55.164h-15.617v-27.06h15.034v3.671h-10.784v7.461h10.159v3.63h-10.159v8.631h11.363zM297.454 55.164h-4.069l-8.45-13.5c-1.757-2.808-3.1-5.141-4.127-7.206.118 2.729.145 5.509.145 9.088v11.618h-4.014v-27.06h4.379l8.489 13.468c1.615 2.6 2.875 4.823 3.877 6.84-.2-2.933-.241-5.738-.241-8.918V28.105h4.017v27.059h-.006zM317.921 55.164h-15.617v-27.06h15.035v3.671h-10.783v7.461h10.161v3.63h-10.161v8.631h11.365zM333.492 55.164h-4.328l-.095-.287-8.775-26.774h4.567l4.178 13.212c1 3.254 1.8 5.875 2.453 8.4.646-2.43 1.519-5.186 2.639-8.374l4.531-13.237h4.5l-9.67 27.06zM345.863 28.105v27.06h15.615v-3.668h-11.36v-8.63h10.156v-3.632h-10.157v-7.461h10.781v-3.669zM302.293 22.328h15.049v2.906h-15.049zM40.614 55.326h-4.492l-2.8-8.252h-8.706l-2.725 8.252h-4.379l9.227-27.06h4.638l9.237 27.06zM25.589 43.597h6.784l-2.421-7c-.406-1.2-.722-2.326-1-3.408-.286 1.107-.589 2.24-.974 3.366l-2.389 7.042zM60.25 55.753c-7.863 0-12.941-5.384-12.941-13.725 0-8.486 5.506-14.189 13.7-14.189 2.1439982-.09829825 4.280331.31868099 6.23 1.216l.3.16-1.072 3.556-.421-.218c-1.5348174-.73103443-3.2205323-1.08942016-4.92-1.046-5.968 0-9.532 3.889-9.532 10.406 0 6.344 3.493 10.133 9.344 10.133 1.7961929.0288468 3.5776523-.3281953 5.224-1.047l.447-.225.835 3.54-.279.147c-2.1793607.9354955-4.5388552 1.3767268-6.909 1.292m31.742-.427h-4.495l-2.8-8.252h-8.707l-2.724 8.252h-4.383l9.235-27.06h4.638l.1.282 9.136 26.778zM76.973 43.597h6.783l-2.418-7c-.409-1.2-.722-2.326-1.006-3.41-.284 1.109-.59 2.242-.972 3.368l-2.387 7.042zm24.234 11.729h-4.328l-.1-.287-8.775-26.774h4.569l4.178 13.21c1 3.258 1.794 5.88 2.451 8.4.648-2.43 1.518-5.186 2.641-8.374l4.531-13.237h4.5l-9.667 27.062zM129.221 55.326h-15.617v-27.06h15.035v3.668h-10.781v7.463h10.159v3.63h-10.159v8.632h11.363zM0 28.266v27.06h15.463v-3.669H4.252V28.266zM84.924 104h3.072V89.696h3.72v-2.448H81.18v2.448h3.744V104zm9.072 0h9.048v-2.448h-5.976v-4.944h5.424V94.16h-5.424v-4.464h5.736v-2.448h-8.808V104zm11.856 0h3.072v-7.2h.696c.560003 0 1.035998.1239988 1.428.372.392002.2480012.691999.7079966.9 1.38l1.656 5.448h3.264l-2.184-6.384c-.128001-.3840019-.267999-.6999988-.42-.948-.152001-.2480012-.307999-.4399993-.468-.576-.160001-.1360007-.319999-.2319997-.48-.288-.160001-.056-.319999-.0999998-.48-.132V95.6c.944005-.1440007 1.719997-.5599966 2.328-1.248.608003-.6880034.912-1.5839945.912-2.688 0-.7680038-.119999-1.4279972-.36-1.98-.240001-.5520028-.579998-1.0079982-1.02-1.368-.440002-.3600018-.967997-.6279991-1.584-.804-.616003-.1760009-1.291996-.264-2.028-.264h-5.232V104zm3.072-9.456V89.6h1.248c.864004 0 1.535998.1599984 2.016.48.480002.3200016.72.9599952.72 1.92 0 .8640043-.251997 1.5039979-.756 1.92-.504003.4160021-1.163996.624-1.98.624h-1.248zM119.196 104h3.072v-7.2h.696c.560003 0 1.035998.1239988 1.428.372.392002.2480012.691999.7079966.9 1.38l1.656 5.448h3.264l-2.184-6.384c-.128001-.3840019-.267999-.6999988-.42-.948-.152001-.2480012-.307999-.4399993-.468-.576-.160001-.1360007-.319999-.2319997-.48-.288-.160001-.056-.319999-.0999998-.48-.132V95.6c.944005-.1440007 1.719997-.5599966 2.328-1.248.608003-.6880034.912-1.5839945.912-2.688 0-.7680038-.119999-1.4279972-.36-1.98-.240001-.5520028-.579998-1.0079982-1.02-1.368-.440002-.3600018-.967997-.6279991-1.584-.804-.616003-.1760009-1.291996-.264-2.028-.264h-5.232V104zm3.072-9.456V89.6h1.248c.864004 0 1.535998.1599984 2.016.48.480002.3200016.72.9599952.72 1.92 0 .8640043-.251997 1.5039979-.756 1.92-.504003.4160021-1.163996.624-1.98.624h-1.248zM132.684 104h9.048v-2.448h-5.976v-4.944h5.424V94.16h-5.424v-4.464h5.736v-2.448h-8.808V104zm18.096 0h4.368c1.168006 0 2.239995-.171998 3.216-.516.976005-.344002 1.819996-.863997 2.532-1.56.712004-.696003 1.267998-1.567995 1.668-2.616.400002-1.0480052.6-2.275993.6-3.684 0-2.7840139-.675993-4.876-2.028-6.276-1.352007-1.400007-3.347987-2.1-5.988-2.1h-4.368V104zm3.072-14.4h1.032c.864004 0 1.611997.1399986 2.244.42.632003.2800014 1.151998.6839974 1.56 1.212s.711999 1.1639963.912 1.908c.200001.7440037.3 1.5719954.3 2.484 0 .9120046-.099999 1.7399963-.3 2.484-.200001.7440037-.503998 1.379997-.912 1.908-.408002.528003-.927997.931999-1.56 1.212-.632003.280001-1.379996.42-2.244.42h-1.032V89.6zm12.192 14.4h9.048v-2.448h-5.976v-4.944h5.424V94.16h-5.424v-4.464h5.736v-2.448h-8.808V104zm28.728-3.168c-.352002.256001-.779997.463999-1.284.624s-1.131996.24-1.884.24c-.640003 0-1.243997-.111999-1.812-.336s-1.067998-.579998-1.5-1.068c-.432002-.488002-.775999-1.115996-1.032-1.884-.256001-.7680038-.384-1.6959946-.384-2.784s.127999-2.0159962.384-2.784c.256001-.7680038.599998-1.3959976 1.032-1.884.432002-.4880024.931997-.8439989 1.5-1.068.568003-.2240011 1.171997-.336 1.812-.336.784004 0 1.427997.1119989 1.932.336l.473334.2133337c.295111.1351109.549332.2559991.762666.3626663l.168-2.76c-.320002-.1280006-.803997-.2759992-1.452-.444s-1.403996-.252-2.268-.252c-1.248006 0-2.347995.2199978-3.3.66-.952005.4400022-1.743997 1.0439962-2.376 1.812-.632003.7680038-1.111998 1.6799947-1.44 2.736-.328002 1.0560053-.492 2.1919939-.492 3.408 0 1.2320062.163998 2.3719948.492 3.42.328002 1.048005.811997 1.955996 1.452 2.724.640003.768004 1.439995 1.371998 2.4 1.812s2.079994.66 3.36.66c.768004 0 1.483997-.055999 2.148-.168.664003-.112001 1.155998-.255999 1.476-.432l-.168-2.808zm2.712-13.584v10.848c0 1.104006.147999 2.043996.444 2.82.296001.776004.703997 1.411998 1.224 1.908.520003.496002 1.123997.855999 1.812 1.08.688003.224001 1.431996.336 2.232.336.784004 0 1.519997-.111999 2.208-.336.688003-.224001 1.291997-.583998 1.812-1.08.520003-.496002.927999-1.131996 1.224-1.908.296001-.776004.444-1.715994.444-2.82V87.248h-3.072v10.848c0 1.392007-.215998 2.355997-.648 2.892s-1.087996.804-1.968.804c-.896004 0-1.559998-.267997-1.992-.804s-.648-1.499993-.648-2.892V87.248h-3.072zM212.148 104h8.592v-2.448h-5.52V87.248h-3.072V104zm10.872 0h3.072V89.696h3.72v-2.448h-10.536v2.448h3.744V104zm8.928-16.752v10.848c0 1.104006.147999 2.043996.444 2.82.296001.776004.703997 1.411998 1.224 1.908.520003.496002 1.123997.855999 1.812 1.08.688003.224001 1.431996.336 2.232.336.784004 0 1.519997-.111999 2.208-.336.688003-.224001 1.291997-.583998 1.812-1.08.520003-.496002.927999-1.131996 1.224-1.908.296001-.776004.444-1.715994.444-2.82V87.248h-3.072v10.848c0 1.392007-.215998 2.355997-.648 2.892s-1.087996.804-1.968.804c-.896004 0-1.559998-.267997-1.992-.804s-.648-1.499993-.648-2.892V87.248h-3.072zM246.612 104h3.072v-7.2h.696c.560003 0 1.035998.1239988 1.428.372.392002.2480012.691999.7079966.9 1.38l1.656 5.448h3.264l-2.184-6.384c-.128001-.3840019-.267999-.6999988-.42-.948-.152001-.2480012-.307999-.4399993-.468-.576-.160001-.1360007-.319999-.2319997-.48-.288-.160001-.056-.319999-.0999998-.48-.132V95.6c.944005-.1440007 1.719997-.5599966 2.328-1.248.608003-.6880034.912-1.5839945.912-2.688 0-.7680038-.119999-1.4279972-.36-1.98-.240001-.5520028-.579998-1.0079982-1.02-1.368-.440002-.3600018-.967997-.6279991-1.584-.804-.616003-.1760009-1.291996-.264-2.028-.264h-5.232V104zm3.072-9.456V89.6h1.248c.864004 0 1.535998.1599984 2.016.48.480002.3200016.72.9599952.72 1.92 0 .8640043-.251997 1.5039979-.756 1.92-.504003.4160021-1.163996.624-1.98.624h-1.248zM260.1 104h9.048v-2.448h-5.976v-4.944h5.424V94.16h-5.424v-4.464h5.736v-2.448H260.1V104zm11.616-.504l.168-2.736c.304002.192001.767997.411999 1.392.66.624003.248001 1.343996.372 2.16.372.336002 0 .655998-.048.96-.144.304002-.096.575999-.243999.816-.444.240001-.200001.427999-.451998.564-.756.136001-.304002.204-.663998.204-1.08 0-.304002-.044-.5679989-.132-.792-.088-.2240011-.223999-.431999-.408-.624-.184001-.192001-.411999-.3759991-.684-.552-.272001-.1760009-.591998-.367999-.96-.576l-1.56-.864c-.832004-.4640023-1.495998-1.0399966-1.992-1.728-.496002-.6880034-.744-1.5759946-.744-2.664 0-.7520038.143999-1.4119972.432-1.98.288001-.5680028.671998-1.0439981 1.152-1.428.480002-.3840019 1.039997-.671999 1.68-.864.640003-.192001 1.311996-.288 2.016-.288.896004 0 1.643997.0799992 2.244.24l.765001.2100002c.209999.0599998.374998.1099996.494999.1499998l-.144 2.568c-.368002-.1440007-.803997-.2999992-1.308-.468-.504003-.1680008-1.115996-.252-1.836-.252-.768004 0-1.347998.1839982-1.74.552-.392002.3680018-.588.8399971-.588 1.416 0 .3200016.048.5919989.144.816.096.2240011.227999.4199992.396.588.168001.1680008.355999.3199993.564.456.138667.0906671.284444.1795556.437333.2666665L278.244 94.688c.496002.2720014.923998.5519986 1.284.84.360002.2880014.659999.6039983.9.948.240001.3440017.419999.7359978.54 1.176.120001.4400022.18.955997.18 1.548 0 .848004-.143999 1.587997-.432 2.22-.288001.632003-.683997 1.155998-1.188 1.572s-1.095997.727999-1.776.936c-.680003.208001-1.419996.312-2.22.312-1.712009 0-2.983996-.247998-3.816-.744z"/>
  </g>
</svg>
